<?xml version="1.0" encoding="UTF-8" standalone="no"?>
<!-- Generator: Adobe Illustrator 16.0.0, SVG Export Plug-In . SVG Version: 6.00 Build 0)  -->

<svg
   xmlns:dc="http://purl.org/dc/elements/1.1/"
   xmlns:cc="http://creativecommons.org/ns#"
   xmlns:rdf="http://www.w3.org/1999/02/22-rdf-syntax-ns#"
   xmlns:svg="http://www.w3.org/2000/svg"
   xmlns="http://www.w3.org/2000/svg"
   xmlns:sodipodi="http://sodipodi.sourceforge.net/DTD/sodipodi-0.dtd"
   xmlns:inkscape="http://www.inkscape.org/namespaces/inkscape"
   version="1.1"
   id="Capa_1"
   x="0px"
   y="0px"
   width="31.999998"
   height="32"
   viewBox="0 0 31.999998 32"
   xml:space="preserve"
   inkscape:version="0.91 r13725"
   sodipodi:docname="icons-email.svg"><metadata
     id="metadata44"><rdf:RDF><cc:Work
         rdf:about=""><dc:format>image/svg+xml</dc:format><dc:type
           rdf:resource="http://purl.org/dc/dcmitype/StillImage" /><dc:title></dc:title></cc:Work></rdf:RDF></metadata><defs
     id="defs42" /><sodipodi:namedview
     pagecolor="#ffffff"
     bordercolor="#666666"
     borderopacity="1"
     objecttolerance="10"
     gridtolerance="10"
     guidetolerance="10"
     inkscape:pageopacity="0"
     inkscape:pageshadow="2"
     inkscape:window-width="1039"
     inkscape:window-height="587"
     id="namedview40"
     showgrid="false"
     fit-margin-top="0"
     fit-margin-left="0"
     fit-margin-right="0"
     fit-margin-bottom="0"
     inkscape:zoom="8.0787092"
     inkscape:cx="16"
     inkscape:cy="11.999999"
     inkscape:window-x="0"
     inkscape:window-y="0"
     inkscape:window-maximized="0"
     inkscape:current-layer="Capa_1" /><g
     id="g3"
     transform="matrix(0.05228758,0,0,0.05228758,0,1e-7)"><g
       id="message"><g
         id="g6"><path
           d="m 0,76.5 0,459 612,0 0,-459 -612,0 z M 567.745,114.75 306,323.939 306,322.734 44.657,114.75 l 523.088,0 z m -529.495,382.5 0,-347.482 267.75,214.2 267.75,-214.2 0,347.482 -535.5,0 z"
           id="path8"
           inkscape:connector-curvature="0" /></g></g></g><g
     id="g10"
     transform="translate(-290,-286)" /><g
     id="g12"
     transform="translate(-290,-286)" /><g
     id="g14"
     transform="translate(-290,-286)" /><g
     id="g16"
     transform="translate(-290,-286)" /><g
     id="g18"
     transform="translate(-290,-286)" /><g
     id="g20"
     transform="translate(-290,-286)" /><g
     id="g22"
     transform="translate(-290,-286)" /><g
     id="g24"
     transform="translate(-290,-286)" /><g
     id="g26"
     transform="translate(-290,-286)" /><g
     id="g28"
     transform="translate(-290,-286)" /><g
     id="g30"
     transform="translate(-290,-286)" /><g
     id="g32"
     transform="translate(-290,-286)" /><g
     id="g34"
     transform="translate(-290,-286)" /><g
     id="g36"
     transform="translate(-290,-286)" /><g
     id="g38"
     transform="translate(-290,-286)" /></svg>