<?xml version="1.0" encoding="utf-8"?>
<!-- Generator: Adobe Illustrator 17.0.0, SVG Export Plug-In . SVG Version: 6.00 Build 0)  -->
<!DOCTYPE svg PUBLIC "-//W3C//DTD SVG 1.1//EN" "http://www.w3.org/Graphics/SVG/1.1/DTD/svg11.dtd">
<svg version="1.1" id="Layer_1" xmlns="http://www.w3.org/2000/svg" xmlns:xlink="http://www.w3.org/1999/xlink" x="0px" y="0px"
	 width="512px" height="512px" viewBox="0 0 512 512" enable-background="new 0 0 512 512" xml:space="preserve">
<g id="Shape_127">
	<g>
		<path fill-rule="evenodd" clip-rule="evenodd" fill="#C25627" d="M431.946,103.923c-25.836-17.712-51.67-27.54-68.639-27.701
			L240.253,256.22c-1.748,2.547-2.829,4.154-2.829,4.154l-6.76,125.019l124.018-42.702l128.069-184.814
			C476.391,142.092,457.72,121.553,431.946,103.923z M262.876,360.082l-16.306-11.134l3.69-85.045
			c0.442-0.561,0.661-2.546,1.023-4.393c9.588,2.869,22.405,9.527,28.101,25.192c0,0,25.253,4.754,33.818,26.557
			c0,0,19.137-0.038,34.659,20.42L262.876,360.082z M461.247,59.615c-39.993-27.422-63.081-31.833-77.282-11.074
			c-0.8,1.123-7,8.826-13.999,18.332c17.028,0.323,42.744,10.169,68.337,27.761c25.836,17.671,44.587,38.291,50.925,54.077
			c7.243-10.51,12.378-17.671,13.28-18.955C517.692,107.511,504.253,89.061,461.247,59.615z M349.447,355.287v101.091
			c0,14.561-11.814,26.396-26.417,26.396H47.074c-14.541,0-26.376-11.835-26.376-26.396v-263.94h93.511
			c39.855,0,67.695-27.842,67.695-67.716V29.186H323.03c14.603,0,26.417,11.815,26.417,26.376v22.745l8.504-12.414l0.142-0.022
			c2.947-4.171,5.896-8.142,8.484-11.573c-0.662-23.487-19.898-42.302-43.546-42.302H164.673v112.727
			c0,29.724-19.256,50.505-50.465,50.505H3.469v281.151c0,24.07,19.556,43.626,43.605,43.626H323.03
			c24.111,0,43.645-19.556,43.645-43.626V343.372l-5.495,7.885L349.447,355.287z M155.427,125.363V13.44L5.074,165.861h109.855
			C137.315,165.861,155.427,147.708,155.427,125.363z M82.718,430.122h206.394c10.91,0,19.756-8.843,19.756-19.755
			c0-10.932-8.846-16.126-19.756-16.126H82.718c-10.913,0-19.759,5.194-19.759,16.126C62.96,421.279,71.805,430.122,82.718,430.122z
			 M82.718,349.892h139.6l1.966-35.884H82.718c-10.913,0-19.759,5.194-19.759,16.127C62.96,341.044,71.805,349.892,82.718,349.892z
			 M83.439,235.16c-10.19,0-18.434,8.224-18.434,18.374c0,10.19,8.244,14.762,18.434,14.762h143.294l0.62-11.373l14.865-21.762
			H83.439z"/>
	</g>
</g>
</svg>
