<?xml version="1.0" encoding="utf-8"?>
<!-- Generator: Adobe Illustrator 17.0.0, SVG Export Plug-In . SVG Version: 6.00 Build 0)  -->
<!DOCTYPE svg PUBLIC "-//W3C//DTD SVG 1.1//EN" "http://www.w3.org/Graphics/SVG/1.1/DTD/svg11.dtd">
<svg version="1.1" id="Layer_1" xmlns="http://www.w3.org/2000/svg" xmlns:xlink="http://www.w3.org/1999/xlink" x="0px" y="0px"
	 width="512px" height="512px" viewBox="0 0 512 512" enable-background="new 0 0 512 512" xml:space="preserve">
<g id="people">
	<g>
		<path fill-rule="evenodd" clip-rule="evenodd" fill="#ED2025" d="M102.719,179.531c17.018,0,32.594-5.993,44.792-16.006
			c-2.824-9.931-4.432-20.461-4.432-31.297c0-23.119,6.862-44.589,18.545-62.676c-12.652-19.019-34.304-31.547-58.905-31.547
			c-39.065,0-70.774,31.69-70.774,70.756C31.945,147.843,63.654,179.531,102.719,179.531z M368.013,170.88
			c10.035,5.521,21.613,8.651,33.892,8.651c39.065,0,70.752-31.688,70.752-70.77c0-39.065-31.686-70.756-70.752-70.756
			c-20.564,0-39.024,8.799-51.943,22.787c15.495,19.698,24.829,44.463,24.829,71.436
			C374.791,145.803,372.297,158.783,368.013,170.88z M150.23,288.691c11.785-16.938,26.805-27.034,40.877-33.111
			c-4.038-11.103-8.737-20.973-14.072-27.693c-18.131-30.657-58.042-26.268-58.042-26.268H84.938c0,0-31.811-1.155-49.987,24.973
			C16.801,252.695,3.161,334.45,3.161,334.45s-3.42,21.573,21.016,21.017h98.959C130.575,329.218,139.764,303.731,150.23,288.691z
			 M476.244,227.887c-18.174-30.657-58.063-26.268-58.063-26.268h-34.077c0,0-31.812-1.155-49.987,24.973
			c-4.017,5.829-7.829,14.443-11.353,24.271c18.832,5.296,40.014,16.483,54.188,39.765c11.951,15.492,21.553,39.847,29.01,64.839
			h79.222c0,0,23.817,0.556,23.817-21.017C509.002,334.45,497.815,255.148,476.244,227.887z M281.848,262.853h-47.966
			c0,0-44.732-1.584-70.259,35.152c-25.612,36.756-44.812,151.807-44.812,151.807s-4.802,30.35,29.607,29.566H376.11
			c0,0,33.562,0.784,33.562-29.566c0,0-15.783-111.609-46.131-149.975C337.97,256.713,281.848,262.853,281.848,262.853z
			 M258.936,231.784c55.012,0,99.556-44.589,99.556-99.556c0-55.015-44.544-99.621-99.556-99.621
			c-54.992,0-99.598,44.606-99.598,99.621C159.338,187.195,203.944,231.784,258.936,231.784z"/>
	</g>
</g>
</svg>
