<?xml version="1.0" encoding="utf-8"?>
<!-- Generator: Adobe Illustrator 17.0.0, SVG Export Plug-In . SVG Version: 6.00 Build 0)  -->
<!DOCTYPE svg PUBLIC "-//W3C//DTD SVG 1.1//EN" "http://www.w3.org/Graphics/SVG/1.1/DTD/svg11.dtd">
<svg version="1.1" id="Layer_1" xmlns="http://www.w3.org/2000/svg" xmlns:xlink="http://www.w3.org/1999/xlink" x="0px" y="0px"
	 width="512px" height="512px" viewBox="0 0 512 512" enable-background="new 0 0 512 512" xml:space="preserve">
<g id="Shape_125">
	<g>
		<path fill-rule="evenodd" clip-rule="evenodd" fill="#FF9934" d="M413.307,33.553v34.188c3.01,4.326,4.8,9.538,4.8,15.224
			c0,14.755-11.941,26.694-26.693,26.694c-14.734,0-26.672-11.939-26.672-26.694c0-6.354,2.3-12.116,6.039-16.739V33.473
			l-47.545-0.078v34.346c2.99,4.326,4.8,9.538,4.8,15.224c0,14.755-11.942,26.694-26.654,26.694
			c-14.773,0-26.754-11.939-26.754-26.694c0-6.354,2.343-12.116,6.101-16.7V33.358l-47.583-0.078v34.462
			c3.029,4.326,4.838,9.538,4.838,15.224c0,14.755-11.941,26.694-26.693,26.694c-14.753,0-26.715-11.939-26.715-26.694
			c0-6.354,2.34-12.116,6.039-16.739V33.218L143.07,33.16v34.582c3.03,4.326,4.8,9.538,4.8,15.224
			c0,14.755-11.92,26.694-26.672,26.694c-14.736,0-26.734-11.939-26.734-26.694c0-6.354,2.341-12.116,6.079-16.739V33.082h-0.867
			c-39.831-0.04-72.152,32.2-72.23,72.053L27.131,435.15c-0.058,39.855,32.221,72.192,72.055,72.254l313.118,0.491
			c39.832,0.038,72.192-32.222,72.23-72.115l0.334-329.957C484.928,66.148,452.904,33.927,413.307,33.553z M436.42,435.761
			c-0.019,13.237-10.8,23.977-24.017,23.977l-313.139-0.47c-8.656,0-14.341-4.407-16.996-7.083
			c-2.636-2.597-7.001-8.34-7.001-16.995l0.314-249.801c0-13.197,10.781-23.956,23.998-23.956l313.118,0.432
			c8.675,0.038,14.38,4.445,17.016,7.101c2.636,2.636,7.042,8.301,7.002,16.975L436.42,435.761z M390.588,92.132
			c-0.395,0.021-0.768,0.08-1.161,0.08c0.45,0.059,0.865,0.118,1.338,0.118c8.969,0,16.247-5.491,16.247-12.276V16.382
			c0-6.768-7.278-12.276-16.247-12.276c-0.157,0-0.255,0.04-0.394,0.04c0.078,0,0.14,0.021,0.218,0.038
			c-8.262,0.573-14.814,5.744-14.814,12.139v63.653C375.775,86.388,382.326,91.562,390.588,92.132z M300.516,92.132
			c-0.394,0.021-0.768,0.08-1.161,0.08c0.45,0.059,0.904,0.118,1.337,0.118c8.989,0,16.248-5.491,16.248-12.276V16.382
			c0-6.768-7.259-12.276-16.248-12.276c-0.136,0-0.256,0.04-0.393,0.04c0.079,0,0.136,0.021,0.217,0.038
			c-8.281,0.573-14.755,5.744-14.755,12.139v63.653C285.762,86.388,292.235,91.562,300.516,92.132z M120.352,92.132
			c-0.394,0.021-0.766,0.08-1.163,0.08c0.435,0.059,0.887,0.118,1.341,0.118c8.988,0,16.268-5.491,16.268-12.276V16.382
			c0-6.768-7.28-12.276-16.268-12.276c-0.119,0-0.256,0.04-0.375,0.04c0.058,0,0.119,0.021,0.197,0.038
			c-8.262,0.573-14.792,5.744-14.792,12.139v63.653C105.56,86.388,112.089,91.562,120.352,92.132z M210.442,92.132
			c-0.392,0.021-0.785,0.08-1.14,0.08c0.413,0.059,0.825,0.118,1.298,0.118c8.989,0,16.287-5.491,16.287-12.276V16.382
			c0-6.768-7.298-12.276-16.287-12.276c-0.119,0-0.217,0.04-0.352,0.04c0.058,0,0.136,0.021,0.194,0.038
			c-8.281,0.573-14.793,5.744-14.793,12.139v63.653C195.649,86.388,202.161,91.562,210.442,92.132z M283.166,301.941
			c18.216-9.954,27.323-23.233,27.323-39.893c0-11.706-4.466-22.268-13.337-31.551c-10.799-11.408-25.101-17.113-42.982-17.113
			c-10.424,0-19.866,1.985-28.265,5.899c-8.421,3.937-14.989,9.365-19.652,16.171c-4.722,6.864-8.223,16.052-10.563,27.539
			l33.499,5.705c0.963-8.32,3.638-14.634,8.044-18.923c4.388-4.327,9.718-6.453,15.914-6.453c6.294,0,11.329,1.89,15.147,5.686
			c3.776,3.777,5.663,8.873,5.663,15.246c0,7.513-2.556,13.551-7.73,18.076c-5.193,4.525-12.727,6.648-22.543,6.372l-3.992,29.645
			c6.472-1.808,12.017-2.675,16.68-2.675c7.062,0,13.081,2.637,18.019,7.986c4.898,5.371,7.338,12.59,7.338,21.736
			c0,9.659-2.558,17.349-7.693,23.033c-5.115,5.706-11.446,8.539-18.962,8.539c-6.963,0-12.94-2.36-17.841-7.083
			c-4.915-4.74-7.928-11.606-9.047-20.594l-35.23,4.248c1.829,15.973,8.359,28.898,19.669,38.794
			c11.31,9.833,25.533,14.809,42.725,14.809c18.117,0,33.244-5.862,45.4-17.604c12.176-11.724,18.273-25.926,18.273-42.567
			c0-11.488-3.283-21.264-9.774-29.389C302.719,309.495,294.004,304.261,283.166,301.941z"/>
	</g>
</g>
</svg>
