<?xml version="1.0" encoding="UTF-8" standalone="no"?>
<svg
   xmlns:dc="http://purl.org/dc/elements/1.1/"
   xmlns:cc="http://creativecommons.org/ns#"
   xmlns:rdf="http://www.w3.org/1999/02/22-rdf-syntax-ns#"
   xmlns:svg="http://www.w3.org/2000/svg"
   xmlns="http://www.w3.org/2000/svg"
   xmlns:sodipodi="http://sodipodi.sourceforge.net/DTD/sodipodi-0.dtd"
   xmlns:inkscape="http://www.inkscape.org/namespaces/inkscape"
   width="2037.8575pt"
   height="242.30643pt"
   viewBox="0 0 2037.8575 242.30643"
   version="1.1"
   id="svg2"
   inkscape:version="0.91 r13725"
   sodipodi:docname="SpringHill-SimeonAS-GreenLeafHill.svg">
  <metadata
     id="metadata36">
    <rdf:RDF>
      <cc:Work
         rdf:about="">
        <dc:format>image/svg+xml</dc:format>
        <dc:type
           rdf:resource="http://purl.org/dc/dcmitype/StillImage" />
        <dc:title></dc:title>
      </cc:Work>
    </rdf:RDF>
  </metadata>
  <defs
     id="defs34" />
  <sodipodi:namedview
     pagecolor="#ffffff"
     bordercolor="#666666"
     borderopacity="1"
     objecttolerance="10"
     gridtolerance="10"
     guidetolerance="10"
     inkscape:pageopacity="0"
     inkscape:pageshadow="2"
     inkscape:window-width="1136"
     inkscape:window-height="696"
     id="namedview32"
     showgrid="false"
     showguides="false"
     inkscape:guide-bbox="true"
     fit-margin-top="0"
     fit-margin-left="0"
     fit-margin-right="0"
     fit-margin-bottom="0"
     inkscape:zoom="0.16802168"
     inkscape:cx="1210.4308"
     inkscape:cy="160.1375"
     inkscape:window-x="0"
     inkscape:window-y="0"
     inkscape:window-maximized="0"
     inkscape:current-layer="svg2">
    <sodipodi:guide
       position="623.15103,201.60678"
       orientation="0,1"
       id="guide4189" />
    <sodipodi:guide
       position="661.24135,44.484196"
       orientation="0,1"
       id="guide4191" />
  </sodipodi:namedview>
  <path
     id="path4186"
     d="m 195.83297,44.417562 c 23.01323,-2.159953 45.87946,3.91282 67.33211,11.738461 29.67405,11.614042 57.55003,27.220061 85.34683,42.690381 12.26996,6.423356 23.85007,14.068036 36.2218,20.321746 43.25585,23.70305 87.55206,46.29788 134.9695,60.52422 1.76414,0.7577 4.77226,0.81424 4.51217,3.44918 -12.93716,5.77873 -26.84689,9.20529 -40.70007,12.05507 -30.3752,6.73999 -61.6777,8.1649 -92.69749,7.24886 -12.10034,-1.10823 -24.25722,-1.5832 -36.3123,-3.05333 -37.80503,-4.90799 -75.24818,-13.6157 -110.90452,-27.254 -12.86932,-4.48955 -25.09405,-10.53971 -37.80503,-15.44769 -42.45293,-17.14402 -87.16758,-29.10863 -132.809531,-33.49642 -8.92258,-1.34574 -17.96955,-0.52016 -26.92605,-1.36834 -6.8757,-0.7577 -13.74009,0.76898 -20.6384,0.46367 -8.52677,-0.29404 -16.90653,1.78678 -25.421989,1.52666 5.021069,-4.76096 11.365255,-7.68994 17.302329,-11.09387 34.79691,-18.840286 69.89915,-37.375268 106.935181,-51.488548 23.02455,-8.470217 46.91988,-15.753021 71.59546,-16.81605 z"
     inkscape:connector-curvature="0"
     style="fill:#6dbf45;fill-opacity:1" />
  <path
     d="m 1075.8572,10.806434 c 3.46,-4.2899998 7.84,-7.9999998 12.83,-10.38999977 2.53,-1.31 4.87,0.72999997 6.45,2.52999997 2.76,3.18 6.57,6.06 7.24,10.4799998 -0.57,3.1 -3.12,5.27 -5.21,7.43 -3.52,3.2 -6.82,6.9 -11.43,8.52 -4.28,-1.05 -5.75,-5.58 -8.36,-8.6 -2.4,-2.61 -4.05,-6.89 -1.52,-9.97 z"
     id="path6"
     inkscape:connector-curvature="0"
     style="fill:#080808" />
  <path
     d="m 1761.0272,0.68643423 c 2.04,-1.25 4.62,-0.57 6.09,1.23999997 2.78,3 6.07,5.78 7.79,9.5899998 1.49,3.08 -1.44,5.79 -3.3,7.91 -3.25,3.08 -6.36,6.41 -10.19,8.77 -2.06,1.44 -5.13,1.02 -6.5,-1.13 -2,-2.69 -3.9,-5.46 -5.88,-8.17 -1.73,-2.31 -2.07,-5.8 -0.16,-8.11 3.28,-4.1399998 7.5,-7.5899998 12.15,-10.09999977 z"
     id="path8"
     inkscape:connector-curvature="0"
     style="fill:#080808" />
  <path
     d="m 1565.7472,15.636434 c 17.26,1.3 34.75,-0.14 51.38,-5.1 0.51,0.98 1.04,1.97 1.58,2.95 -5.63,7.4 -6.2,17.01 -6.85,25.93 -0.4,9.94 -0.1,19.88 -0.19,29.82 11.28,-7.42 22.53,-15.15 31.97,-24.88 1.08,-1.01 2.32,-2.21 3.97,-1.97 12.92,0.24 25.76,2.53 38.21,5.9 7.43,2.1 15.62,5.29 19.16,12.73 3.84,8.59 3.54,18.26 3.84,27.47 0.17,18.009996 0.11,36.059996 -1.64,53.999996 -1.1,8.25 -2.03,16.87 -6.37,24.15 -3.19,5.55 -6.42,11.47 -12.02,14.94 -8.03,4.95 -16.46,9.31 -24.01,15.02 -3.22,2.29 -6.04,5.21 -9.76,6.69 -1.77,-2.22 -3.72,-4.38 -4.85,-7.02 0.22,-1.57 1.87,-1.87 3.09,-2.38 5.92,-2.23 11.91,-4.37 17.41,-7.55 2.38,-1.45 4.93,-3.17 5.85,-5.96 5.39,-13.97 6.43,-29.14 6.31,-43.97 -0.2,-17.74 -1.18,-35.54 -4.18,-53.039996 -0.89,-5.87 -4.53,-11.47 -10.32,-13.46 -9.89,-3.27 -20.26,-5.67 -30.73,-5.52 -7.56,0.07 -14.25,4.29 -20.04,8.76 -2.92,2.68 -6.66,5.83 -6.25,10.2 -0.24,28.649996 -0.23,57.289996 -0.17,85.929996 0.28,7.41 0.5,15.38 4.82,21.74 1.19,1.6 2.06,3.38 2.09,5.42 -12.99,-1.07 -27.45,-2.5 -38.67,5.57 -0.47,-0.37 -1.42,-1.12 -1.89,-1.5 7.48,-13.75 8.16,-29.78 9.03,-45.06 0.7,-28.67 0.34,-57.349996 0.43,-86.029996 -0.11,-10.67 0.26,-21.36 -0.27,-32.03 -0.39,-4.81 -1.43,-10.64 -6.2,-13.04 -4.94,-2.35 -10.56,-1.78 -15.82,-2.6 0.36,-2.01 -0.11,-4.33 1.09,-6.11 z"
     id="path10"
     inkscape:connector-curvature="0"
     style="fill:#080808" />
  <path
     d="m 1835.7272,16.186434 c 8.2,-0.45 16.36,-1.88 24.12,-4.61 1.86,-1.1 3.79,1.89 2.37,3.35 -4.16,7.78 -5,16.73 -6.08,25.34 -2.35,24.31 -1.2,48.76 -1.47,73.139996 0.08,15.68 -0.17,31.36 0.13,47.03 0.26,7.06 1.23,15.85 8.53,19.18 10.51,4.29 22.16,3.93 33.32,3.8 2.8,-0.13 6.61,0.08 8.02,-2.97 2.74,-5.96 4.42,-12.35 7.1,-18.35 2.67,1.1 5.26,2.41 7.75,3.92 -4.79,9.63 -10.87,18.66 -14.36,28.9 -0.72,2.26 -3.36,1.32 -5.08,1.27 -23.36,-2.96 -46.98,-3.05 -70.46,-1.77 -5.08,0.23 -10.09,1.05 -15.09,1.82 -2.34,0.93 -4.21,-2.79 -3.46,-4.4 4.7,-2.83 10.25,-4.58 13.94,-8.9 3.93,-4.13 4.98,-10.03 4.93,-15.54 0.02,-29.66 0,-59.32 0.01,-88.979996 -0.1,-12.48 0.34,-25.01 -1.15,-37.42 -0.88,-5.71 -2.11,-12.13 -6.98,-15.85 -3.61,-2.9 -8.39,-2.98 -12.76,-3.46 -1.77,-1.23 -1,-4.17 -0.7,-5.99 9.11,-0.1 18.24,1.21 27.37,0.49 z"
     id="path12"
     inkscape:connector-curvature="0"
     style="fill:#080808" />
  <path
     d="m 1945.5972,16.336434 c 11.57,0.29 23.31,-0.88 34.27,-4.77 1.82,-1.08 3.75,1.86 2.37,3.31 -3.89,7.19 -4.82,15.45 -5.89,23.42 -2.55,23.61 -1.44,47.38 -1.68,71.069996 0.05,16.7 -0.12,33.4 0.09,50.1 0.44,5.88 0.36,12.66 4.67,17.26 3.63,3.91 9.19,4.82 14.22,5.68 7.95,1.37 16.05,1.12 24.09,0.98 2.51,-0.09 5.77,-0.27 6.94,-2.97 2.73,-5.95 4.42,-12.32 7.08,-18.3 1.99,0.82 3.94,1.76 5.91,2.69 1.08,5.25 -2.69,9.28 -4.87,13.63 -2.99,5.27 -5.53,10.77 -7.62,16.45 -0.6,2.03 -2.87,1.51 -4.43,1.37 -15.28,-1.87 -30.68,-2.8 -46.06,-2.59 -13.44,0.15 -26.95,0.22 -40.22,2.57 -2.41,0.81 -3.8,-2.47 -3.56,-4.38 5.48,-3.04 11.89,-5.26 15.54,-10.72 4.65,-6.62 3.26,-15.13 3.5,-22.72 -0.01,-31.66 0.03,-63.329996 -0.02,-94.989996 -0.24,-9.72 0.03,-19.62 -2.49,-29.1 -1.05,-4.14 -3.41,-8.22 -7.3,-10.25 -3.53,-2.03 -7.71,-2.06 -11.65,-2.31 -0.32,-1.96 -0.79,-4 -0.22,-5.96 5.75,-0.53 11.55,0.6 17.33,0.53 z"
     id="path14"
     inkscape:connector-curvature="0"
     style="fill:#080808" />
  <path
     d="m 694.0472,39.406434 c 1.95,-1.77 5.17,-0.54 7.64,-0.78 -0.21,7.61 -1.46,15.14 -1.97,22.74 -0.78,9.34 -0.52,18.72 0.03,28.07 -1.55,0.1 -3.1,0.2 -4.64,0.25 -0.94,-4.24 -1.93,-8.67 -4.65,-12.18 -4.18,-5.6 -11.14,-8.06 -17.66,-9.7 -13.14,-2.96 -26.7,-3.36 -40.11,-3.45 -1.91,0.14 -4.39,-0.46 -5.65,1.42 -1.95,4.25 -1.48,9.1 -1.76,13.66 -0.02,7.62 -0.57,15.89 3.64,22.629996 4.34,7.01 12.86,9.74 20.58,10.94 15,2.21 30.19,0.55 45.26,1.46 4.11,0.41 8.56,1.16 11.67,4.12 2.91,2.71 3.59,6.89 4.07,10.65 0.66,10.41 -0.26,20.91 -2.51,31.08 -0.4,2.59 -1.97,4.75 -3.9,6.43 -9.38,8.65 -18.53,17.55 -27.2,26.91 -2.01,1.96 -3.8,4.47 -6.58,5.35 -14.29,0.51 -29.04,0.52 -42.56,-4.77 -8.08,-3.02 -15.42,-7.69 -22.1,-13.1 0.23,4.94 0.29,9.94 1.6,14.75 -2.36,1.64 -4.69,3.58 -7.56,4.23 -1.56,-1 -0.95,-3.16 -1.26,-4.71 -0.21,-13.69 2.37,-27.3 1.33,-41 -0.33,-1.49 0.13,-5.29 2.4,-3.65 3.13,2.89 5.87,6.2 9.16,8.92 14.17,12.11 32.89,17.97 51.34,18.5 6.19,0.16 12.64,0.5 18.59,-1.48 4.28,-1.56 4.16,-6.75 4.79,-10.49 0.64,-8.59 1.62,-17.89 -2.47,-25.82 -3.07,-5.75 -9.83,-7.7 -15.83,-8.5 -11.64,-1.23 -23.37,-0.81 -35.05,-1.05 -7.99,-0.23 -16.4,-0.78 -23.54,-4.73 -5.62,-3.08 -8.94,-9.4 -8.8,-15.74 -0.03,-11.369996 0.37,-22.899996 3.25,-33.959996 1.15,-4.24 2.91,-8.65 6.57,-11.34 8.37,-6.39 17.12,-12.28 25.5,-18.67 2.11,-1.54 4.23,-3.55 7.04,-3.42 17.47,-0.22 34.67,3.41 51.96,5.46 -0.11,-3.02 -0.51,-6.01 -0.62,-9.03 z"
     id="path16"
     inkscape:connector-curvature="0"
     style="fill:#080808" />
  <path
     d="m 1445.8772,40.406434 c 2.56,-0.93 5.18,-1.66 7.89,-2.03 0.28,6.06 -1.43,11.94 -2.23,17.89 -1.83,10.93 -1.57,22.06 -1.26,33.1 0.19,2.75 -5.49,2.73 -5.55,0.06 -0.75,-5.86 -2.97,-11.69 -7.45,-15.7 -6.38,-5.89 -15.37,-7.14 -23.63,-8.23 -15.28,-1.58 -30.65,-2.3 -46,-2.83 -2.31,0.09 -5.64,-0.52 -6.71,2.16 -6.22,13.6 -8.35,28.75 -8.39,43.599996 -0.15,14.31 2.79,28.87 9.87,41.41 5.9,10.62 15,19.46 25.86,24.94 14.43,7.24 30.26,11.34 46.22,13.47 2.52,-14.44 3.29,-29.09 3.84,-43.71 -12.99,-2.56 -26.31,-2.91 -39.43,-1.27 -0.08,-1.49 -0.12,-2.98 -0.12,-4.47 4.59,-1.37 9.5,-2.76 12.81,-6.46 1.13,-1.75 3.3,-0.91 5.01,-0.86 15.34,2.12 31.07,1.74 46.2,-1.64 2.07,-0.46 4.18,-0.71 6.32,-0.8 -0.94,4.59 -2.68,8.95 -3.9,13.46 -6.73,25.1 -9.48,51.09 -10.17,77.01 -5.04,0.32 -10.19,0.64 -14.92,2.58 -9.17,3.36 -16.33,10.24 -23.55,16.53 -1.52,-0.16 -4.42,-2.25 -2.7,-3.77 11.35,-11.85 16.65,-27.93 19.95,-43.66 -8.1,2.95 -16.26,5.71 -24.28,8.86 -4.12,1.82 -8.65,0.54 -12.93,0.23 -16.85,-2.34 -33.43,-8.39 -47.02,-18.77 -10.78,-8.25 -18.99,-19.94 -22.5,-33.11 -3.63,-12.32 -2.91,-25.33 -2.43,-38.01 0.63,-10.409996 1.54,-20.949996 4.77,-30.919996 1.9,-5.5 4.78,-11.44 10.45,-13.85 13.96,-6.12 27.99,-12.11 41.98,-18.17 4.77,-1.99 9.59,-4.29 14.87,-4.39 16.6,-0.66 33.01,2.62 49.41,4.69 0.04,-2.45 -0.11,-4.9 -0.28,-7.34 z"
     id="path18"
     inkscape:connector-curvature="0"
     style="fill:#080808" />
  <path
     d="m 722.4172,56.956434 c 11.12,-3.24 22.52,-6.86 31.4,-14.64 6.86,2.92 13.74,5.99 20.62,8.96 8.17,3.95 7.72,14.45 7.62,22.16 13.41,-8.87 28.22,-16.43 38.63,-29.05 1.36,-1.92 3.92,-1.34 5.92,-1.29 13.12,1.1 26.37,2.49 38.94,6.63 4.54,1.55 9.53,4.01 11.27,8.84 1.21,4.15 0.57,8.52 0.72,12.78 -0.16,15.71 0.35,31.429996 -0.32,47.129996 -1.55,18.63 -5.44,37.06 -11.32,54.8 -1.08,2.79 -1.68,6.53 -5.08,7.35 -10.57,3.88 -21.11,8.11 -30.55,14.34 -2.43,2.05 -5.67,1.35 -8.57,1.3 -13.54,-0.67 -27.1,-2.08 -40.29,-5.29 -0.09,11.48 0.95,22.93 2.09,34.33 -0.33,0.33 -0.99,0.99 -1.31,1.33 -11.95,0.45 -23.06,6.84 -30.86,15.67 -0.47,-0.3 -1.4,-0.89 -1.87,-1.19 5.14,-13.59 7.68,-28.13 7.72,-42.65 0.07,-38.05 -0.11,-76.09 -0.25,-114.139996 -0.03,-4.4 0.03,-9.08 -2.27,-12.99 -2.01,-3.24 -5.25,-5.38 -8.16,-7.71 -2.57,-1.99 -5.36,-4.19 -8.77,-4.21 -4.46,-0.37 -8.32,2.2 -12.11,4.14 -1.26,-2.11 -2.34,-4.31 -3.2,-6.6 z"
     id="path20"
     inkscape:connector-curvature="0"
     style="fill:#080808" />
  <path
     d="m 911.8472,44.586434 c 1.79,-0.98 3.55,-2.66 5.77,-2.09 8.75,1.23 17.59997,2.69 25.80997,6.07 2.28,1.11 5.03,2.28 5.87,4.91 -0.27,3.55 -0.81,7.08 -1.05,10.63 10.94,-5.38 21.46,-11.59 31.44,-18.58 3.69,-2.84 8.54,-2.59 12.94,-2.55 5.89,0.2 11.83003,0.6 17.57003,2.07 4.39,1.19 8.61,3.85 10.76,7.97 2.5,4.71 2.49,10.18 2.45,15.37 -0.11,8.15 -0.28,16.42 -2.43,24.33 -1.71,6.35 -5.57,12.399996 -11.55,15.459996 -5.7,2.96 -11.62003,5.48 -17.28003,8.51 6.81,11.54 13.57003,23.11 21.02003,34.24 9.05,13.61 17.32,28.2 29.94,38.9 2.14,2.07 5.79,3.21 5.96,6.66 -11.79,-1.27 -23.73,-3.15 -35.53,-0.93 -14.62003,-22.38 -28.90003,-45.21 -47.09003,-64.93 -2.21,-2.54 -5.18,-4.62 -6.17,-7.98 8.05,-2.25 16.05,-4.7 23.83,-7.74 5.9,-2.3 11.51,-6.35 13.97,-12.38 3.40003,-8.259996 2.52003,-17.399996 2.48003,-26.109996 -0.45,-4.73 -0.08,-10.58 -4.24003,-13.83 -4.37,-2.68 -9.77,-2.19 -14.68,-2.35 -4.39,0.13 -8.94,-0.49 -13.18,0.93 -7.97,2.58 -15.66,6.9 -20.71,13.75 -1.35,24.81 -1.08,49.659996 -1.05,74.499996 0.13,15.33 0.18,30.78 2.95,45.91 -0.32,1.8 -2.87,0.74 -4.1,0.96 -8.68,-0.83 -17.51997,-0.45 -25.92997,2.02 -1.67,0.17 -3.68,1.57 -5.11,0.01 0.89,-2.77 2.36,-5.31 3.22,-8.09 2.73,-8.32 3.14,-17.15 3.79,-25.82 1.24,-26.99 0.6,-54.03 0.76,-81.039996 -0.16,-6.3 0.54,-12.73 -0.96,-18.91 -0.67,-2.85 -2.74,-5.51 -5.7,-6.13 -4.86,-1.3 -9.87,-2.6 -14.94,-2.03 -3.14,0.33 -5.93,1.93 -8.81,3.09 -1.17,-1.74 -1.99,-3.68 -2.46,-5.72 7.94,-1.7 15.57,-4.73 22.44,-9.08 z"
     id="path22"
     inkscape:connector-curvature="0"
     style="fill:#080808" />
  <path
     d="m 1060.6872,42.536434 c 13.12,1.3 26.37,3.54 39.56,1.61 3.74,-0.67 7.42,-1.96 11.28,-1.72 0.01,1.75 -0.01,3.51 -0.07,5.26 -2.61,1.38 -5.43,3.02 -6.36,6.03 -1.94,5.66 -1.97,11.74 -2.37,17.65 -1.22,33.989996 -0.69,68.019996 -0.45,102.029996 0.11,5.3 0.14,11.3 3.94,15.45 2.77,3.01 7.03,3.3 10.84,3.63 -0.04,1.29 -0.07,2.59 -0.11,3.9 -10.82,0.16 -21.83,-0.67 -32.39,2.16 -4.67,0.8 -8.98,3.69 -13.83,3.03 1.1,-4.99 3.31,-9.66 4.29,-14.68 1.97,-9.69 1.91,-19.63 2.45,-29.47 0.59,-28.66 0.45,-57.35 0.22,-86.019996 -0.3,-6.51 -0.26,-13.95 -4.89,-19.09 -3.43,-3.65 -8.79,-3.04 -13.31,-3.57 0.03,-2.12 0.04,-4.33 1.2,-6.2 z"
     id="path24"
     inkscape:connector-curvature="0"
     style="fill:#080808" />
  <path
     d="m 1170.8472,42.536434 c 1.8,-0.8 2.56,1.06 3.37,2.28 9.03,15.14 19.95,29.14 32.48,41.54 14.86,15.619996 31.92,28.869996 48.35,42.739996 7.35,6.04 14.61,12.18 21.96,18.22 1.13,-11.59 1.41,-23.25 1.64,-34.88 0.04,-13.029996 0.55,-26.059996 -0.04,-39.079996 -0.68,-7.4 -1.92,-15.93 -8.25,-20.74 -4.94,-3.54 -11.27,-3.21 -17.03,-2.85 0.09,-2.01 -0.79,-4.35 0.5,-6.12 5.78,-1.11 11.61,0.63 17.41,0.92 11.47,1.34 23.22,1.25 34.45,-1.7 0.86,2.04 0.58,4.2 0.08,6.28 -1.81,0.53 -3.89,0.63 -5.31,2 -2.32,2.04 -3.14,5.17 -3.89,8.05 -1.64,7.3 -1.65,14.84 -2.02,22.28 -1.37,28.629996 -2.5,57.269996 -2.63,85.929996 -0.22,9.73 -0.1,19.46 -0.52,29.18 -1.38,0.05 -3.04,0.5 -3.64,-1.14 -5.26,-7.93 -11.6,-15.12 -18.78,-21.36 -15.9,-13.97 -33.74,-25.48 -50.37,-38.54 -15.6,-12.14 -30.64,-25.18 -43.65,-40.089996 0.86,23.319996 1.02,46.679996 2.12,69.999996 0.51,10.15 1.58,20.28 3.63,30.25 -6.45,-0.17 -13.11,-0.57 -19.32,1.54 -3.7,1.19 -6.85,3.6 -9.56,6.33 -1.18,1.01 -2.31,2.75 -4.07,1.71 1.13,-4.9 4.19,-9.08 5.71,-13.85 4.62,-13.48 5.51,-27.88 6.06,-42.01 0.62,-24.05 0.51,-48.11 -0.02,-72.159996 0.25,-2.37 -1.6,-4.06 -2.79,-5.86 -4.81,-6.44 -9.55,-13.03 -15.51,-18.47 -2.85,-2.81 -6.93,-3.33 -10.69,-3.87 0.39,-1.96 0.85,-3.9 1.3,-5.85 12.99,0.02 26.17,2.24 39.03,-0.68 z"
     id="path26"
     inkscape:connector-curvature="0"
     style="fill:#080808" />
  <path
     d="m 1733.7572,42.526434 c 14.93,1.5 30.29,4.29 45.1,0.42 1.84,-0.45 3.74,-0.53 5.65,-0.54 -0.23,2.09 1,5.19 -1.58,6.14 -3.45,1.59 -5.33,5.1 -5.83,8.74 -1.8,10.94 -1.54,22.09 -1.92,33.14 -0.36,28.309996 -0.19,56.629996 0.14,84.949996 0.13,4.82 0.59,10.31 4.3,13.85 2.76,2.72 6.8,2.89 10.44,3.25 -0.05,1.29 -0.08,2.59 -0.11,3.9 -7.11,0.13 -14.22,-0.22 -21.3,0.33 -6.7,0.51 -13.24,2.17 -19.56,4.36 -1.73,0.64 -3.56,0.7 -5.35,0.51 1.77,-7.02 4.8,-13.75 5.31,-21.07 2.18,-22.96 1.68,-46.08 1.8,-69.12 -0.02,-13.999996 0.09,-28.009996 -0.22,-41.999996 -0.35,-6.09 -0.66,-13.1 -5.37,-17.6 -3.5,-3.12 -8.46,-2.52 -12.77,-3.05 0.05,-2.13 -0.04,-4.39 1.27,-6.21 z"
     id="path28"
     inkscape:connector-curvature="0"
     style="fill:#080808" />
  <path
     d="m 795.6872,73.376434 c 3.79,-2.52 7.55,-5.31 11.9,-6.76 10.42,-0.27 21.01,0.27 31.12,2.97 4.95,1.22 9.46,4.65 11.2,9.54 2.33,6.5 1.36,13.53 1.57,20.28 -0.21,24.339996 1.33,49.269996 -5.62,72.909996 -0.75,1.99 -1.25,5.37 -4.07,5.06 -20.46,-0.04 -41.75,-1.59 -60.45,-10.61 0.04,-25.81 0.29,-51.61 0.47,-77.409996 0.04,-1.83 -0.15,-3.89 1.22,-5.33 3.59,-4.23 8.21,-7.42 12.66,-10.65 z"
     id="path30"
     inkscape:connector-curvature="0"
     style="fill:#fdfdfd" />
</svg>
