<?xml version="1.0" encoding="UTF-8" standalone="no"?>
<svg
   xmlns:dc="http://purl.org/dc/elements/1.1/"
   xmlns:cc="http://creativecommons.org/ns#"
   xmlns:rdf="http://www.w3.org/1999/02/22-rdf-syntax-ns#"
   xmlns:svg="http://www.w3.org/2000/svg"
   xmlns="http://www.w3.org/2000/svg"
   version="1.1"
   id="svg4150"
   viewBox="0 0 936.67411 77.462011"
   height="0.86068898in"
   width="10.40749in">
  <defs
     id="defs4152">
    <style
       id="style4223"
       type="text/css">@import url('https://fonts.googleapis.com/css?family=Open+Sans');</style>
  </defs>
  <metadata
     id="metadata4155">
    <rdf:RDF>
      <cc:Work
         rdf:about="">
        <dc:format>image/svg+xml</dc:format>
        <dc:type
           rdf:resource="http://purl.org/dc/dcmitype/StillImage" />
        <dc:title></dc:title>
      </cc:Work>
    </rdf:RDF>
  </metadata>
  <g
     transform="translate(-26.848934,-626.39581)"
     id="layer1">
    <g
       id="text4733"
       style="font-style:normal;font-variant:normal;font-weight:bold;font-stretch:normal;font-size:23.53622627px;line-height:125%;font-family:'Open Sans';-inkscape-font-specification:'Open Sans Bold';letter-spacing:0px;word-spacing:0px;fill:#000000;fill-opacity:1;stroke:none;stroke-width:1px;stroke-linecap:butt;stroke-linejoin:miter;stroke-opacity:1">
      <path
         id="path4837"
         style="font-style:normal;font-variant:normal;font-weight:bold;font-stretch:normal;font-size:105px;font-family:'Open Sans';-inkscape-font-specification:'Open Sans Bold'"
         d="m 370.64218,681.6131 q 0,10.15137 -7.33154,15.99609 -7.28028,5.84473 -20.30274,5.84473 -11.99707,0 -21.22558,-4.51172 l 0,-14.76563 q 7.58789,3.38379 12.81738,4.76807 5.28076,1.38428 9.63867,1.38428 5.22949,0 7.99805,-1.99951 2.81982,-1.99951 2.81982,-5.94727 0,-2.20459 -1.23046,-3.89648 -1.23047,-1.74317 -3.64014,-3.33252 -2.3584,-1.58936 -9.68994,-5.07569 -6.87012,-3.22998 -10.30518,-6.20361 -3.43506,-2.97363 -5.48584,-6.92139 -2.05078,-3.94775 -2.05078,-9.22851 0,-9.94629 6.71631,-15.63721 6.76758,-5.69092 18.66211,-5.69092 5.84472,0 11.12549,1.38428 5.33203,1.38428 11.12548,3.89648 l -5.12695,12.35596 q -5.99853,-2.46094 -9.94629,-3.43506 -3.89648,-0.97412 -7.69043,-0.97412 -4.51172,0 -6.92138,2.10205 -2.40967,2.10205 -2.40967,5.48584 0,2.10205 0.97412,3.69141 0.97412,1.53808 3.07617,3.0249 2.15332,1.43555 10.1001,5.22949 10.51025,5.02442 14.40674,10.1001 3.89648,5.02442 3.89648,12.35596 z" />
      <path
         id="path4839"
         style="font-style:normal;font-variant:normal;font-weight:bold;font-stretch:normal;font-size:105px;font-family:'Open Sans';-inkscape-font-specification:'Open Sans Bold'"
         d="m 399.91708,662.74591 5.2295,0 q 7.33154,0 10.97168,-2.87109 3.64013,-2.92237 3.64013,-8.45948 0,-5.58837 -3.07617,-8.25439 -3.0249,-2.66602 -9.53613,-2.66602 l -7.22901,0 0,22.25098 z m 35.88868,-11.89453 q 0,12.09961 -7.5879,18.5083 -7.53662,6.40869 -21.48193,6.40869 l -6.81885,0 0,26.66016 -15.89355,0 0,-74.95606 23.94287,0 q 13.6377,0 20.71289,5.896 7.12647,5.84473 7.12647,17.48291 z" />
      <path
         id="path4841"
         style="font-style:normal;font-variant:normal;font-weight:bold;font-stretch:normal;font-size:105px;font-family:'Open Sans';-inkscape-font-specification:'Open Sans Bold'"
         d="m 465.74716,660.7464 5.12695,0 q 7.53663,0 11.12549,-2.51221 3.58887,-2.51221 3.58887,-7.89551 0,-5.33203 -3.69141,-7.58789 -3.64013,-2.25586 -11.33056,-2.25586 l -4.81934,0 0,20.25147 z m 0,12.91992 0,28.76221 -15.89355,0 0,-74.95606 21.84082,0 q 15.27832,0 22.60986,5.58838 7.33154,5.53711 7.33154,16.86768 0,6.61377 -3.64013,11.79199 -3.64014,5.12695 -10.30518,8.04932 16.91895,25.27588 22.0459,32.65869 l -17.63672,0 -17.89307,-28.76221 -8.45947,0 z" />
      <path
         id="path4843"
         style="font-style:normal;font-variant:normal;font-weight:bold;font-stretch:normal;font-size:105px;font-family:'Open Sans';-inkscape-font-specification:'Open Sans Bold'"
         d="m 518.96494,702.42853 0,-74.95606 15.89355,0 0,74.95606 -15.89355,0 z" />
      <path
         id="path4845"
         style="font-style:normal;font-variant:normal;font-weight:bold;font-stretch:normal;font-size:105px;font-family:'Open Sans';-inkscape-font-specification:'Open Sans Bold'"
         d="m 620.3248,702.42853 -20.2002,0 -32.60742,-56.7041 -0.46142,0 q 0.97412,15.02197 0.97412,21.43066 l 0,35.27344 -14.20166,0 0,-74.95606 20.04638,0 32.55616,56.14014 0.35888,0 q -0.76904,-14.61182 -0.76904,-20.66162 l 0,-35.47852 14.3042,0 0,74.95606 z" />
      <path
         id="path4847"
         style="font-style:normal;font-variant:normal;font-weight:bold;font-stretch:normal;font-size:105px;font-family:'Open Sans';-inkscape-font-specification:'Open Sans Bold'"
         d="m 667.59531,660.33624 29.73632,0 0,38.86231 q -7.229,2.3584 -13.63769,3.28125 -6.35742,0.97412 -13.02246,0.97412 -16.97022,0 -25.94238,-9.94629 -8.9209,-9.99756 -8.9209,-28.65967 0,-18.14941 10.35644,-28.30078 10.40772,-10.15137 28.81348,-10.15137 11.53564,0 22.25098,4.61426 l -5.28077,12.71484 q -8.20312,-4.10156 -17.07275,-4.10156 -10.30518,0 -16.50879,6.92139 -6.20361,6.92139 -6.20361,18.61084 0,12.20215 4.97314,18.66211 5.02442,6.40869 14.56055,6.40869 4.97314,0 10.1001,-1.02539 l 0,-15.63721 -14.20166,0 0,-13.22754 z" />
      <path
         id="path4849"
         style="font-style:normal;font-variant:normal;font-weight:bold;font-stretch:normal;font-size:105px;font-family:'Open Sans';-inkscape-font-specification:'Open Sans Bold'"
         d="m 803.92099,702.42853 -15.84229,0 0,-32.35108 -29.68505,0 0,32.35108 -15.89356,0 0,-74.95606 15.89356,0 0,29.37744 29.68505,0 0,-29.37744 15.84229,0 0,74.95606 z" />
      <path
         id="path4851"
         style="font-style:normal;font-variant:normal;font-weight:bold;font-stretch:normal;font-size:105px;font-family:'Open Sans';-inkscape-font-specification:'Open Sans Bold'"
         d="m 822.89072,702.42853 0,-74.95606 15.89355,0 0,74.95606 -15.89355,0 z" />
      <path
         id="path4853"
         style="font-style:normal;font-variant:normal;font-weight:bold;font-stretch:normal;font-size:105px;font-family:'Open Sans';-inkscape-font-specification:'Open Sans Bold'"
         d="m 857.754,702.42853 0,-74.95606 15.89355,0 0,61.83106 30.40283,0 0,13.125 -46.29638,0 z" />
      <path
         id="path4855"
         style="font-style:normal;font-variant:normal;font-weight:bold;font-stretch:normal;font-size:105px;font-family:'Open Sans';-inkscape-font-specification:'Open Sans Bold'"
         d="m 917.22665,702.42853 0,-74.95606 15.89356,0 0,61.83106 30.40283,0 0,13.125 -46.29639,0 z" />
    </g>
    <path
       style="fill:#6fbf46"
       id="path5378"
       d="m 121.29953,627.52013 c 11.09932,-1.04175 22.12775,1.88716 32.47439,5.66148 14.31185,5.60148 27.75649,13.12829 41.16294,20.58965 5.91782,3.098 11.50293,6.78504 17.46984,9.80122 20.86237,11.43202 42.22651,22.32955 65.09603,29.19094 0.85085,0.36544 2.30167,0.39271 2.17623,1.66354 -6.23962,2.7871 -12.94831,4.43973 -19.62971,5.81418 -14.65002,3.25072 -29.74727,3.93795 -44.70818,3.49615 -5.83601,-0.53451 -11.69929,-0.76358 -17.51348,-1.47263 -18.23343,-2.36713 -36.29233,-6.56687 -53.48946,-13.14465 -6.20689,-2.16532 -12.1029,-5.08333 -18.23343,-7.45046 -20.47512,-8.26858 -42.04108,-14.03914 -64.054278,-16.15537 -4.303374,-0.64906 -8.666744,-0.25089 -12.986481,-0.65996 -3.316161,-0.36544 -6.626868,0.37088 -9.953938,0.22363 -4.112476,-0.14182 -8.154047,0.86176 -12.261069,0.73631 2.421671,-2.29622 5.481483,-3.70887 8.344945,-5.35059 16.782612,-9.08671 33.712485,-18.02616 51.575031,-24.83303 11.104777,-4.0852 22.62954,-7.59771 34.53062,-8.11041 z" />
  </g>
</svg>
