<?xml version="1.0" encoding="UTF-8" standalone="no"?>
<svg
   xmlns:dc="http://purl.org/dc/elements/1.1/"
   xmlns:cc="http://creativecommons.org/ns#"
   xmlns:rdf="http://www.w3.org/1999/02/22-rdf-syntax-ns#"
   xmlns:svg="http://www.w3.org/2000/svg"
   xmlns="http://www.w3.org/2000/svg"
   xmlns:sodipodi="http://sodipodi.sourceforge.net/DTD/sodipodi-0.dtd"
   xmlns:inkscape="http://www.inkscape.org/namespaces/inkscape"
   version="1.0"
   width="700.000000pt"
   height="700.000000pt"
   viewBox="0 0 700.000000 700.000000"
   preserveAspectRatio="xMidYMid meet"
   id="svg2"
   inkscape:version="0.91 r13725"
   sodipodi:docname="safari-pinned-tab.svg">
  <defs
     id="defs12" />
  <sodipodi:namedview
     pagecolor="#ffffff"
     bordercolor="#666666"
     borderopacity="1"
     objecttolerance="10"
     gridtolerance="10"
     guidetolerance="10"
     inkscape:pageopacity="0"
     inkscape:pageshadow="2"
     inkscape:window-width="1114"
     inkscape:window-height="533"
     id="namedview10"
     showgrid="false"
     inkscape:zoom="0.26971429"
     inkscape:cx="469.22081"
     inkscape:cy="437.50001"
     inkscape:window-x="224"
     inkscape:window-y="114"
     inkscape:window-maximized="0"
     inkscape:current-layer="svg2" />
  <metadata
     id="metadata4">
Created by potrace 1.11, written by Peter Selinger 2001-2013
<rdf:RDF>
  <cc:Work
     rdf:about="">
    <dc:format>image/svg+xml</dc:format>
    <dc:type
       rdf:resource="http://purl.org/dc/dcmitype/StillImage" />
  </cc:Work>
</rdf:RDF>
</metadata>
  <g
     transform="matrix(0.1,0,0,0.1,1.6,189.07227)"
     id="g6"
     style="fill:#000000;stroke:none">
    <path
       id="path9"
       d="m 2600.2442,561.40848 c 305.5663,-28.67953 609.182,51.95389 894.0267,155.86169 394.0086,154.20967 764.1425,361.42433 1133.2247,566.83713 162.918,85.2885 316.677,186.7936 480.9482,269.8295 574.3447,314.7259 1162.5037,614.737 1792.1069,803.6325 23.4235,10.0607 63.3646,10.8113 59.9111,45.7977 -171.7771,76.7293 -356.4696,122.2266 -540.4092,160.0656 -403.3178,89.4927 -818.9482,108.4125 -1230.8249,96.2494 -160.6676,-14.715 -322.0852,-21.0215 -482.1498,-40.5417 -501.9712,-65.1676 -999.1356,-180.7874 -1472.5765,-361.8749 -170.8768,-59.6117 -333.1948,-139.9449 -501.9697,-205.1124 -563.684,-227.636 -1157.3997,-386.5005 -1763.42677,-444.761 -118.47305,-17.8686 -238.59799,-6.9066 -357.52112,-18.1687 -91.29464,-10.0605 -182.43929,10.2105 -274.0339,6.1567 C 224.33344,1591.4756 113.06763,1619.1045 -4.4067796e-5,1615.6507 66.669423,1552.4354 150.90692,1513.5448 229.73893,1468.3478 691.76749,1218.189 1157.8498,972.084 1649.6102,784.68973 1955.3264,672.22328 2272.605,575.52325 2600.2442,561.40848 Z"
       inkscape:connector-curvature="0" />
  </g>
</svg>
